<svg viewBox="0 0 98 30" xmlns="http://www.w3.org/2000/svg"><path d="M57.44 9.035c1.401 1.44 2.103 3.438 2.103 5.992a9.553 9.553 0 01-.602 3.463 7.115 7.115 0 01-1.636 2.573 7.227 7.227 0 01-2.424 1.561 8.032 8.032 0 01-2.973.546 6.558 6.558 0 01-2.76-.578 7.145 7.145 0 01-2.15-1.473v6.484c.04.674.575 1.212 1.247 1.256h.21a.415.415 0 01.415.416v.088a.43.43 0 01-.429.43h-7.006a.43.43 0 01-.43-.43v-.088a.417.417 0 01.417-.42h.21a1.334 1.334 0 001.25-1.249V11.752a1.334 1.334 0 00-1.25-1.25h-.106a.522.522 0 01-.52-.519V9.66c0-.114.037-.225.106-.316l.053-.068a.514.514 0 01.215-.165l4.277-1.773a.487.487 0 01.186-.037h.64a.484.484 0 01.48.556l-.273 1.807a6.141 6.141 0 012.25-2.038 6.29 6.29 0 013.026-.75 7.3 7.3 0 015.473 2.16zM20.62 6.876a8.306 8.306 0 013.404.664 6.246 6.246 0 012.403 1.8 8.23 8.23 0 011.381 2.549c.285.859.442 1.755.467 2.659a.588.588 0 01-.537.607l-11.272.961a4.482 4.482 0 001.658 2.988 5.418 5.418 0 003.515 1.129 6.674 6.674 0 005.83-3 .457.457 0 01.213-.168l.03-.012a.458.458 0 01.316 0l.011.005a.449.449 0 01.247.215.448.448 0 01.034.341 7.722 7.722 0 01-2.748 4.05 7.821 7.821 0 01-4.83 1.516 8.687 8.687 0 01-4.36-1.09 7.665 7.665 0 01-2.977-2.981 8.474 8.474 0 01-1.055-4.207 7.726 7.726 0 011.117-4.074 8.01 8.01 0 013.01-2.901 8.392 8.392 0 014.143-1.05zm69.484-.002a8.303 8.303 0 013.404.664 6.25 6.25 0 012.403 1.8 8.25 8.25 0 011.382 2.549c.284.859.441 1.755.467 2.659a.59.59 0 01-.538.607l-11.272.961a4.49 4.49 0 001.658 2.988 5.42 5.42 0 003.516 1.129 6.674 6.674 0 005.83-3 .453.453 0 01.213-.169l.029-.011a.458.458 0 01.316 0l.012.005a.451.451 0 01.28.556 7.726 7.726 0 01-2.748 4.05 7.823 7.823 0 01-4.83 1.516 8.687 8.687 0 01-4.36-1.09 7.659 7.659 0 01-2.975-2.98 8.464 8.464 0 01-1.056-4.205 7.718 7.718 0 011.118-4.075 8.01 8.01 0 013.01-2.901 8.386 8.386 0 014.141-1.053zm-54.827-.001a9.166 9.166 0 014.109.872l.192.305.129 3.224a.505.505 0 01-.506.526h-.526a.507.507 0 01-.358-.148l-.012-.013a.504.504 0 01-.148-.332c0-.718-.243-1.415-.688-1.978a2.386 2.386 0 00-1.945-.838 2.455 2.455 0 00-1.692.557 1.944 1.944 0 00-.625 1.531 2.208 2.208 0 00.785 1.739 7.55 7.55 0 002.49 1.268 10.92 10.92 0 011.788.61 6.318 6.318 0 011.27.818c.417.338.74.776.942 1.273.221.573.328 1.184.314 1.798a4.568 4.568 0 01-.882 2.813 5.152 5.152 0 01-2.25 1.73c-.97.376-2 .56-3.04.546a9.877 9.877 0 01-5.181-1.287.535.535 0 01-.205-.23.541.541 0 01-.043-.367l.755-3.032a.545.545 0 01.145-.257l.05-.05a.554.554 0 01.39-.162h.473a.553.553 0 01.552.533 3.886 3.886 0 00.698 2.31 2.425 2.425 0 002.046.908c.506.015 1-.153 1.394-.472.348-.27.616-.628.777-1.038a3.22 3.22 0 00.205-1.112 2.366 2.366 0 00-.526-1.535 2.318 2.318 0 00-.693-.518 8.45 8.45 0 00-.908-.42 31.09 31.09 0 00-1.211-.426 6.15 6.15 0 01-2.768-1.723 3.91 3.91 0 01-.982-2.652 4.243 4.243 0 011.616-3.453 6.23 6.23 0 014.07-1.318zm31.01.433a.504.504 0 01.502.562l-.293 2.624v10.055c.043.673.58 1.209 1.254 1.25h.204c.086 0 .17.027.239.075l.071.063c.073.078.113.18.114.286v.094a.417.417 0 01-.416.416h-7.04a.417.417 0 01-.416-.416v-.094c0-.106.04-.208.113-.286l.008-.007a.417.417 0 01.303-.131h.2a1.336 1.336 0 001.25-1.25V11.74a1.336 1.336 0 00-1.25-1.25h-.104a.522.522 0 01-.52-.521v-.372a.52.52 0 01.335-.486l4.64-1.773a.514.514 0 01.18-.032h.627zm-56.31-.43a2.59 2.59 0 011.86.694c.479.446.743 1.076.728 1.73a2.349 2.349 0 01-.654 1.7 2.2 2.2 0 01-1.655.682A2.197 2.197 0 018.6 10.98a2.379 2.379 0 01-.668-1.705A3.84 3.84 0 006.56 11.03a6.744 6.744 0 00-.565 2.805v6.718c.006.329.147.64.39.862.22.242.532.383.86.389h.201c.115 0 .225.047.304.13l.007.008c.073.078.113.18.113.286v.085c0 .11-.044.217-.121.295a.421.421 0 01-.295.122H.417A.417.417 0 010 22.313v-.093c0-.106.04-.209.113-.286l.008-.007a.415.415 0 01.303-.131h.2c.329-.006.64-.147.862-.39.242-.221.383-.532.389-.86V11.74a1.196 1.196 0 00-.39-.862 1.196 1.196 0 00-.86-.389H.52A.52.52 0 010 9.97v-.325c0-.114.037-.225.106-.316l.052-.068a.519.519 0 01.216-.166L4.65 7.34a.477.477 0 01.185-.037h.643a.488.488 0 01.483.552l-.272 2.07a5.632 5.632 0 011.73-2.217 4.125 4.125 0 012.556-.831zm69.483 0a2.59 2.59 0 011.86.694c.479.447.744 1.076.729 1.73a2.35 2.35 0 01-.655 1.7 2.33 2.33 0 01-3.31-.023 2.38 2.38 0 01-.67-1.704 3.847 3.847 0 00-1.372 1.753 6.743 6.743 0 00-.563 2.805v6.719a1.336 1.336 0 001.25 1.25h.204c.115 0 .225.048.303.131l.008.008c.072.077.113.18.113.286v.088a.418.418 0 01-.417.417h-7.039a.42.42 0 01-.42-.417v-.093c0-.107.041-.209.114-.286l.007-.007a.417.417 0 01.303-.131h.205a1.336 1.336 0 001.25-1.25V11.74a1.336 1.336 0 00-1.25-1.25h-.104a.523.523 0 01-.521-.521v-.325c0-.114.037-.225.106-.316l.052-.068a.522.522 0 01.217-.166l4.278-1.754a.477.477 0 01.184-.037h.641a.486.486 0 01.483.552l-.273 2.07a5.624 5.624 0 011.731-2.217 4.125 4.125 0 012.556-.831zM51.114 8.752a3.663 3.663 0 00-3.316 1.934 7.474 7.474 0 00-.74 1.995l.002.002c-.167.77-.249 1.557-.244 2.345a11.015 11.015 0 00.236 2.337 7.38 7.38 0 00.733 1.995 3.703 3.703 0 001.347 1.421c.6.354 1.285.533 1.981.518a3.846 3.846 0 002.02-.518 3.635 3.635 0 001.349-1.423 7.406 7.406 0 00.718-1.988 12.17 12.17 0 000-4.69 7.406 7.406 0 00-.717-1.987 3.633 3.633 0 00-1.35-1.423 3.838 3.838 0 00-2.02-.518zm-30.372 0a3.693 3.693 0 00-3.074 1.466 6.742 6.742 0 00-1.263 3.893l.079.214 6.296-.503c.399.011.784-.144 1.064-.427.215-.257.33-.582.322-.917a3.824 3.824 0 00-.945-2.71 3.224 3.224 0 00-2.48-1.015zm69.486 0a3.692 3.692 0 00-3.074 1.466 6.735 6.735 0 00-1.263 3.893l.078.214 6.297-.503c.398.011.783-.144 1.063-.427.215-.256.33-.582.321-.916a3.824 3.824 0 00-.942-2.71 3.226 3.226 0 00-2.48-1.016zM64.438 0a2.628 2.628 0 012.623 2.622 2.443 2.443 0 01-.77 1.806 2.551 2.551 0 01-1.852.755 2.577 2.577 0 01-2.561-2.56A2.551 2.551 0 0162.632.77 2.443 2.443 0 0164.44 0z"/></svg>