<svg viewBox="0 0 93 30" xmlns="http://www.w3.org/2000/svg"><path d="M33.01 18.577c.895-.86 1.855-1.578 2.914-2.07a.463.463 0 10-.394-.838c-.752.351-1.448.796-2.1 1.309.316-1.233.557-2.23.658-2.599.067-.246.12-.466.158-.643a5.72 5.72 0 00.045-.233c.01-.071.02-.12.02-.2 0-.03.002-.06-.016-.135-.012-.039-.025-.093-.087-.175a.473.473 0 00-.618-.109c-.092.06-.115.101-.139.13-.035.05-.047.076-.062.106-.037.08-.067.164-.11.295-.22.671-.534 1.432-.901 2.297-.194.456-.384 1.006-.616 1.471-.228.47-.506.818-.745.922a.578.578 0 01-.23.068c-.036-.003-.027-.003-.04-.011-.02-.01-.087-.098-.128-.264a2.557 2.557 0 01-.066-.63c0-.304.03-.607.085-.906.097-.527.19-.834.299-1.121.085-.224.184-.445.3-.735.124-.22.214-.397.275-.536.031-.07.056-.13.076-.187.009-.028.017-.055.024-.087.007-.033.017-.065.018-.137-.002-.044.001-.102-.048-.21a.472.472 0 00-.423-.264c-.149.004-.218.052-.263.08-.08.055-.1.086-.123.114-.067.088-.098.153-.15.258a5.44 5.44 0 00-.163.393c-.022.062-.045.119-.066.174-.248.422-.783 1.217-1.294 1.995-.194.294-.384.591-.572.89.198-1.015.521-2.381.83-3.577.257-.989.46-2.02.604-2.9.143-.884.229-1.603.247-2.003.002-.051.004-.099.004-.145a1.332 1.332 0 00-.066-.46.659.659 0 00-.175-.265.577.577 0 00-.386-.146.73.73 0 00-.406.135 2.173 2.173 0 00-.422.402c-.147.173-.31.391-.502.667-.96 1.39-1.365 2.89-1.992 4.512-.325.845-.827 2.336-1.284 3.723-.183.554-.358 1.093-.512 1.563.111-1.27.297-2.984.547-4.278.2-1.046.418-2.182.587-3.178.168-1.002.29-1.844.291-2.376a2.745 2.745 0 00-.073-.701.888.888 0 00-.153-.316.603.603 0 00-.183-.156.572.572 0 00-.277-.072.64.64 0 00-.38.132c-.13.098-.214.209-.302.342a3.9 3.9 0 00-.258.482c-.226.49-.689 1.397-1.214 2.486-.525 1.09-1.116 2.369-1.608 3.632-.236.606-.836 2.316-1.382 3.887a779.361 779.361 0 00-1.034 2.991.46.46 0 00.083.463.468.468 0 00.799-.163l.312-.906c.568-1.65 1.757-5.08 2.09-5.938.48-1.227 1.06-2.487 1.58-3.566.41-.852.782-1.588 1.04-2.118a26.884 26.884 0 01-.25 1.743c-.166.982-.383 2.113-.583 3.159-.41 2.138-.643 5.217-.678 6.002a2.655 2.655 0 00-.003.132c.001.196.017.361.075.528a.712.712 0 00.16.261.567.567 0 00.77.042c.124-.097.194-.202.262-.32.066-.118.124-.254.178-.414.138-.402.546-1.672 1.002-3.055.455-1.38.957-2.873 1.268-3.68.644-1.68 1.041-3.099 1.89-4.318.078-.113.15-.215.218-.304a32.682 32.682 0 01-.785 4.264 74.776 74.776 0 00-.713 2.988c-.09.416-.171.834-.243 1.254a5.94 5.94 0 00-.097.879c0 .2.009.363.037.515a.804.804 0 00.09.254.523.523 0 00.702.208.65.65 0 00.204-.173c.124-.162.199-.334.303-.595.052-.138.21-.43.414-.767.154-.253.312-.503.473-.751a5.102 5.102 0 00-.007.274c.002.395.04.783.19 1.135.075.173.183.345.352.48a.987.987 0 00.625.215c.187 0 .37-.045.554-.123-.8.9-1.54 1.877-2.253 2.863a20.406 20.406 0 00-1.373 2.147 8.98 8.98 0 00-.556 1.21c-.143.4-.24.788-.24 1.168-.001.32.074.652.29.925.215.276.548.446.926.51.06.01.12.015.18.015.205 0 .398-.06.568-.15.298-.16.548-.407.792-.714.725-.92 1.422-2.452 2.069-4.217.437-1.199.88-2.723 1.266-4.155zm-2.142 3.84c-.478 1.308-.993 2.484-1.482 3.305-.243.41-.481.729-.684.925-.1.097-.19.163-.258.199a.287.287 0 01-.13.041.14.14 0 01-.019-.001c-.22-.04-.302-.107-.353-.169-.05-.063-.091-.168-.091-.354-.002-.215.063-.518.185-.856.364-1.017 1.22-2.316 1.809-3.13a38.676 38.676 0 011.78-2.31c-.248.847-.506 1.661-.757 2.35zm3.792-11.56a.725.725 0 00.429.146c.2 0 .36-.09.457-.175.149-.131.216-.261.268-.363.048-.101.072-.176.077-.191a.466.466 0 00-.85-.365.542.542 0 01-.07-.264c0-.1.025-.206.124-.348.195-.269.374-.464.916-.874.538-.405 1.412-.995 2.908-1.983 1.496-.989 3.04-1.998 4.244-2.807a105.406 105.406 0 00.72-.486c-.108.224-.213.45-.315.676-.166.371-.404.996-.686 1.783-.844 2.356-2.062 6.113-2.59 8.06-.165.61-.336 1.219-.511 1.826-.225.164-.44.342-.641.534-.702.677-1.34 1.676-1.823 2.75-.479 1.076-.8 2.217-.803 3.208.002.402.05.715.178.984a.957.957 0 00.288.354c.13.094.286.146.448.148h.006a.95.95 0 00.513-.165c.213-.14.382-.336.532-.573.15-.237.277-.52.372-.838.255-.853 1.057-3.485 1.736-5.834.45-.303.947-.574 1.388-.788.305-.148.614-.287.928-.416l.06-.024c.033.218.087.423.172.61.078.169.184.327.341.455a.933.933 0 00.583.206h.012c.36-.004.688-.135.97-.315.425-.274.773-.667 1.055-1.075.282-.41.492-.834.608-1.203.045-.146.088-.293.13-.44.496-.194 1.024-.517 1.583-.972.246-.201.576-.466.959-.794v.008c0 .762.056 1.434.191 1.96.07.264.153.494.295.696.071.1.16.195.279.27a.785.785 0 00.415.123h.005c.12 0 .234-.027.336-.07.233-.102.432-.257.64-.448.422-.396.875-.972 1.325-1.625a3.833 3.833 0 00-.046.533c.002.218.022.424.134.639a.764.764 0 00.269.287.76.76 0 00.397.11c.243-.004.443-.09.656-.21a11.983 11.983 0 001.604-1.13c.12.345.368.63.693.8.317.167.666.224 1.01.225a3.814 3.814 0 001.706-.431c.518-.277 1.083-.763 1.652-1.302a34.277 34.277 0 001.543-1.588.461.461 0 00-.033-.651.468.468 0 00-.656.026 33.03 33.03 0 01-1.499 1.544c-.535.514-1.085.967-1.444 1.153-.34.183-.851.325-1.27.323-.237 0-.438-.044-.57-.116a.5.5 0 01-.26-.312 3.04 3.04 0 01-.092-.36c.258-.244.507-.496.748-.756.903-.982 1.598-1.959 1.864-2.773.112-.351.169-.66.169-.942-.001-.263-.048-.51-.199-.73a.829.829 0 00-.697-.36c-.407.01-.742.218-1.092.532-.471.433-.908 1.064-1.24 1.806-.332.743-.556 1.6-.556 2.479 0 .13.005.26.015.39a11.78 11.78 0 01-1.918 1.402c-.001-.017-.002-.035-.001-.055-.003-.283.09-.773.24-1.31.223-.81.566-1.746.852-2.475.106-.27.204-.512.285-.71.096-.21.177-.4.238-.563a.466.466 0 00-.864-.346c-.001.003-.092.21-.232.547-.348.76-.95 1.884-1.596 2.916a18.09 18.09 0 01-1.231 1.763c-.194.24-.38.444-.54.594a1.843 1.843 0 01-.298.234.85.85 0 01-.06-.124c-.141-.347-.239-1.092-.236-1.965 0-.293.009-.586.026-.878.189-.182.374-.368.554-.558.99-1.038 2.032-2.375 2.773-4.019.502-1.113.874-2.046 1.126-2.814.251-.77.385-1.365.387-1.851 0-.212-.026-.408-.102-.596a.888.888 0 00-.42-.465A1.184 1.184 0 0054.113 0a1.33 1.33 0 00-.658.185c-.344.197-.628.501-.905.876-.817 1.12-1.57 2.95-2.271 4.772-.457 1.2-.74 2.745-.85 4.18-.64.595-1.213 1.05-1.604 1.37-.231.192-.476.367-.733.523.039-.237.06-.476.062-.716-.003-.301-.033-.595-.183-.876a.978.978 0 00-.345-.367.989.989 0 00-.518-.137c-.275.001-.545.087-.844.236l-.005.003a.67.67 0 00-.036.02l-.006.004-.001.001c-.028.018-.38.251-.798.666-.423.421-.92 1.03-1.194 1.81a5.526 5.526 0 00-.279 1.295 15.518 15.518 0 00-1.986.908c.084-.296.162-.58.234-.846.342-1.265.999-3.362 1.645-5.307.298-.898.605-1.792.922-2.684a27.54 27.54 0 01.66-1.714c.261-.584.546-1.161.766-1.603.11-.222.203-.409.271-.55.035-.07.062-.128.084-.179.011-.026.022-.048.032-.077a.493.493 0 00.017-.053c.006-.026.016-.051.018-.13-.003-.041.004-.104-.056-.222a.468.468 0 00-.412-.246c-.135.004-.195.043-.235.063-.068.041-.086.063-.106.082-.043.045-.06.068-.081.098a2.36 2.36 0 01-.223.187c-.43.335-1.327.945-2.422 1.674-1.097.73-2.4 1.583-3.67 2.423-1.5.991-2.38 1.582-2.955 2.016-.573.43-.868.731-1.111 1.076-.204.282-.3.595-.298.884 0 .275.08.522.193.724.106.191.252.357.428.487zm3.298 10.773c-.097.327-.238.59-.366.749a.834.834 0 01-.092.1 1.808 1.808 0 01-.054-.495c-.003-.788.279-1.846.722-2.832a9.472 9.472 0 011.088-1.858c-.553 1.873-1.095 3.66-1.298 4.336zM57.06 8.911c.285-.642.671-1.183 1.02-1.502.128-.118.24-.194.324-.237a.553.553 0 01.086-.038.648.648 0 01.015.153c0 .151-.034.38-.125.663-.172.56-.812 1.514-1.662 2.426l-.101.108a5.485 5.485 0 01.443-1.573zm-5.91-2.749c.525-1.373 1.087-2.743 1.643-3.743.275-.5.552-.905.797-1.16a1.49 1.49 0 01.325-.269.402.402 0 01.198-.064c.03 0 .057.004.095.02.004.01.01.026.016.05.01.044.017.11.017.196.002.306-.103.846-.34 1.564-.237.722-.6 1.63-1.092 2.723-.618 1.373-1.475 2.532-2.328 3.47.142-1.01.37-2.008.669-2.787zm-5.73 5.153c.08-.19.193-.357.313-.466.191-.09.322-.115.375-.114.018 0 .028.003.032.003.005.006.009.013.012.02.031.047.072.213.07.432.001.317-.067.734-.155 1.113a.82.82 0 01-.007.032 1.41 1.41 0 01-.257.024c-.226-.002-.36-.06-.46-.145l-.008-.01a.567.567 0 01-.05-.272c-.002-.178.045-.41.135-.617zm-1.315 1.538c.072-.205.166-.402.279-.588.011.06.025.12.044.178.056.165.147.331.298.465.287.254.671.378 1.072.377a4.095 4.095 0 01-.718 1.23c-.173.205-.364.38-.543.494-.18.115-.339.166-.47.168h-.004c-.005-.004-.018-.014-.036-.04-.08-.1-.177-.438-.172-.855 0-.432.083-.95.25-1.43zM56.272 3.86c.09.034.184.052.278.052h.014c.243 0 .49-.153.548-.46a.815.815 0 00.015-.16c-.001-.223-.066-.463-.064-.618 0-.059.01-.101.021-.12.013-.017.019-.026.064-.035a.104.104 0 00.087-.098.102.102 0 00-.08-.104 1.684 1.684 0 00-.341-.032c-.172 0-.386.024-.58.126a.815.815 0 00-.439.727c.001.303.18.609.477.723zm18.576 10.846a.469.469 0 00-.658.03l-.02.02c-.386.404-.805.776-1.253 1.112-.645.488-1.448.905-2.028.895l-.049-.001a.907.907 0 01-.166-.02c.284-.284.55-.583.8-.896.413-.516.779-1.1 1.048-1.68.267-.582.445-1.151.448-1.684 0-.223-.034-.444-.123-.654a1.17 1.17 0 00-.45-.53 1.069 1.069 0 00-.58-.174c-.352.002-.634.17-.855.362-.333.295-.587.686-.798 1.066-.21.38-.371.747-.467.977-.177.43-.442 1.315-.447 2.198.002.317.035.639.145.94a.316.316 0 00-.018.037c-.48.483-.889.824-1.22 1.041-.386.256-.662.333-.804.33-.112-.004-.156-.025-.227-.085-.086-.071-.187-.25-.262-.51.749-1.378 1.66-3.562 2.408-5.775.387-1.15.729-2.305.975-3.355.246-1.052.399-1.993.4-2.749-.002-.438-.046-.815-.2-1.148a1.134 1.134 0 00-.35-.439.992.992 0 00-.584-.189c-.256.006-.426.12-.563.233-.205.175-.369.4-.535.667-.163.266-.32.571-.464.893 0 .002 0 .004-.002.006l-.002.002c-.882 2.076-1.724 5.63-2.014 8.106a20.33 20.33 0 00-.155 2.281c.001.462.026.91.1 1.321a5.37 5.37 0 01-.96 1.21c-.355.332-.703.48-.84.469a.47.47 0 01-.27-.104c-.08-.07-.156-.187-.21-.37a2.451 2.451 0 01-.081-.674c0-.446.078-.942.16-1.317.041-.197.09-.392.146-.585a.309.309 0 01.008-.026c.09-.244.178-.48.265-.7.417-1.046.954-2.852 1.435-4.565.364-1.308.717-2.619 1.057-3.933a.46.46 0 00-.123-.449.468.468 0 00-.779.217c-.339 1.309-.69 2.614-1.053 3.916-.475 1.7-1.016 3.504-1.403 4.474l-.078.2a1.372 1.372 0 00-.65-.61 1.29 1.29 0 00-.533-.118c-.318 0-.601.12-.834.287-.351.25-.624.605-.864.99a8.371 8.371 0 00-.6 1.201c-.369.899-.538 1.647-.54 2.266 0 .146.012.285.032.418-.066.092-.14.178-.221.258-.088.086-.19.165-.29.217a.61.61 0 01-.289.08h-.019a.28.28 0 01-.088-.014.447.447 0 01-.021-.165c-.007-.294.15-.856.327-1.438.171-.59.36-1.208.364-1.791 0-.294-.05-.6-.237-.871-.186-.275-.51-.454-.865-.503a.811.811 0 00-.134-.011.962.962 0 00-.441.112c-.24.126-.416.311-.582.525-.287.375-.539.862-.785 1.395-.136.299-.266.6-.391.903.063-.302.106-.602.107-.892 0-.26-.034-.517-.145-.763a1.186 1.186 0 00-.586-.593.95.95 0 00-.406-.092 1.016 1.016 0 00-.473.122c-.258.137-.45.342-.635.58-.318.42-.603.97-.893 1.57-.433.897-.867 1.91-1.303 2.671-.217.38-.435.695-.628.89a1.108 1.108 0 01-.253.202.32.32 0 01-.151.046l-.027-.001a.466.466 0 01-.269-.17c-.092-.111-.174-.28-.176-.564 0-.152.027-.339.096-.56l.128-.331c.31-.82.599-1.671.877-2.37a.46.46 0 00-.057-.47.468.468 0 00-.81.13l-.077.2a1.375 1.375 0 00-.65-.61 1.298 1.298 0 00-.533-.118c-.318 0-.601.121-.834.287-.351.251-.624.605-.864.99a8.478 8.478 0 00-.6 1.201 8.33 8.33 0 00-.407 1.237 3.729 3.729 0 01-.414.678 7.896 7.896 0 01-1.41 1.45c-.265.208-.533.38-.776.496-.244.115-.46.17-.613.169a.452.452 0 01-.304-.099 1.185 1.185 0 01-.356-.46 1.313 1.313 0 01-.083-.468c-.001-.337.11-.747.297-1.172a9.46 9.46 0 01.698-1.266 4.2 4.2 0 01.986-1.096c.324-.25.629-.35.747-.343.03 0 .046.004.053.006l.005.001a.468.468 0 00.763-.268.461.461 0 00-.16-.437 1.009 1.009 0 00-.66-.229c-.454.007-.88.213-1.31.532-.428.322-.85.774-1.21 1.338-.272.426-.55.9-.767 1.394-.215.494-.372 1.011-.374 1.54a2.09 2.09 0 00.058.515c-.634.506-1.72 1.05-2.923 1.575-1.354.594-2.861 1.184-4.117 1.794-1.24.605-2.023 1.05-2.607 1.475-.584.424-.961.83-1.352 1.294a.461.461 0 00.056.652c.198.165.492.14.657-.056.38-.449.678-.77 1.19-1.143.512-.373 1.248-.797 2.467-1.39 1.204-.587 2.706-1.175 4.083-1.78 1.146-.506 2.202-1.01 2.97-1.58.088.104.187.202.3.291.258.21.578.306.882.306h.011c.468-.004.91-.183 1.337-.432.64-.377 1.254-.935 1.755-1.5l.072-.083c.058.207.146.394.27.556.24.321.631.501 1.02.501h.02c.228 0 .455-.05.681-.136.423-.17.713-.504.979-.9.06-.09.117-.185.173-.283.032.046.064.09.099.131.24.282.544.448.858.492.053.007.102.01.152.01.356 0 .66-.164.905-.371.43-.371.768-.915 1.102-1.536.497-.93.957-2.037 1.398-2.891.218-.427.434-.789.62-1.016.093-.113.178-.191.236-.23a.291.291 0 01.075-.036.252.252 0 01.143.141.95.95 0 01.063.38c.003.447-.18 1.126-.378 1.76-.098.318-.198.63-.277.913-.077.287-.138.537-.14.792a.907.907 0 00.07.371.644.644 0 00.368.344.6.6 0 00.205.036.686.686 0 00.432-.164c.179-.15.284-.321.405-.528.2-.36.403-.834.62-1.356.322-.781.672-1.666 1.02-2.331.172-.332.346-.608.492-.774a.875.875 0 01.175-.161.236.236 0 01.032-.017c.167.032.197.07.231.113.035.045.073.157.072.344.005.368-.153.95-.326 1.53-.17.588-.36 1.164-.366 1.7.001.242.041.507.225.743a.91.91 0 00.354.27c.139.058.285.085.435.09h.047c.285 0 .539-.084.746-.197a2.2 2.2 0 00.475-.354c.24.248.583.385.923.385h.02c.227 0 .454-.05.68-.136.422-.17.713-.504.979-.9.189-.287.363-.62.528-.977.027.088.06.176.1.262a1.412 1.412 0 001.264.844c.548-.01 1.016-.308 1.47-.712.253-.23.497-.505.725-.811.064.093.137.18.223.258.23.21.53.327.842.328h.015c.423-.003.845-.174 1.319-.484.387-.255.812-.61 1.291-1.087.033.021.066.042.1.06a1.617 1.617 0 00.826.199c.517-.002 1.011-.165 1.47-.388 1.37-.673 2.498-1.923 2.52-1.94a.462.462 0 00-.031-.655zM48.83 20.352a8.87 8.87 0 01-.252.708c-.012.031-.02.047-.02.05-.163.36-.33.68-.494.928-.208.323-.42.505-.538.544a.97.97 0 01-.342.073c-.156-.006-.219-.04-.3-.137-.08-.1-.163-.315-.162-.669-.001-.208.029-.463.094-.757l.029-.08a.454.454 0 00.022-.128c.087-.323.196-.64.325-.95.196-.48.457-1 .737-1.37a1.92 1.92 0 01.405-.418c.125-.088.219-.115.293-.115a.44.44 0 01.382.284c.057.13.092.326.092.558.002.459-.131 1.034-.27 1.48zm13.343-2.735c-.058.185-.121.37-.19.55l-.062.157-.022.052-.004.008a6.714 6.714 0 01-.489.918c-.209.323-.42.505-.536.543a.974.974 0 01-.343.075c-.157-.006-.22-.04-.301-.138-.08-.1-.162-.315-.162-.669-.001-.446.13-1.094.47-1.915.196-.48.457-1 .737-1.37.139-.185.28-.33.405-.418.126-.088.22-.115.293-.115.044 0 .088.008.148.034a.448.448 0 01.234.25c.058.13.094.326.093.558.001.46-.132 1.034-.271 1.48zm4.686-3.779c.272-2.369 1.12-5.919 1.945-7.848a6.02 6.02 0 01.538-.981c.083-.117.16-.203.209-.244.017.017.06.073.096.2.042.144.069.364.069.636 0 .63-.139 1.528-.376 2.54-.557 2.382-1.656 5.418-2.625 7.542a21.48 21.48 0 01.144-1.845zm3.323 1.89c-.004-.683.243-1.537.375-1.843.12-.286.346-.797.616-1.21a2.43 2.43 0 01.404-.493c.122-.107.208-.133.237-.133h.004c.017.002.031 0 .077.028.044.03.068.057.095.117a.72.72 0 01.048.288c.003.313-.127.795-.362 1.296a7.547 7.547 0 01-.93 1.49 9.829 9.829 0 01-.558.642 2.568 2.568 0 01-.006-.183z" fill-rule="evenodd"/></svg>