<svg viewBox="0 0 34 33" xmlns="http://www.w3.org/2000/svg"><defs><linearGradient x1="98.281%" y1="9.5%" x2="1.726%" y2="90.417%" id="a"><stop stop-color="#F2647B" offset="0%"/><stop stop-color="#AE61F3" offset="100%"/></linearGradient></defs><g fill="none" fill-rule="evenodd"><path d="M22.67.428c-2.016.096-3.856.806-5.537 1.93l-.292.2-.289-.2c-1.81-1.21-3.804-1.941-6.006-1.941C4.634.417 0 5.237 0 11.217c0 5.347 2.939 10.147 7.659 14.518a43.2 43.2 0 004.802 3.831l.63.427c.596.398 1.095.709 1.466.928l2.286 1.309 2.11-1.208c.492-.281 1.281-.773 2.271-1.456a43.2 43.2 0 004.803-3.831c4.72-4.37 7.658-9.171 7.658-14.518 0-5.98-4.633-10.8-10.546-10.8l-.469.01z" fill="#FFF" fill-rule="nonzero"/><path d="M23.139 4.667c3.527 0 6.296 2.881 6.296 6.55 0 8.91-12.592 16.116-12.592 16.116l-.612-.37C13.708 25.38 4.25 18.938 4.25 11.216c0-3.669 2.77-6.55 6.296-6.55 3.527 0 6.297 3.67 6.297 3.67l.207-.256c.706-.833 3.13-3.414 6.089-3.414z" fill="url(#a)"/></g></svg>