<svg xmlns="http://www.w3.org/2000/svg" viewBox="0 0 30 30"><path d="M22 10.548a5.624 5.624 0 01-1.65.463 2.938 2.938 0 001.263-1.629 5.668 5.668 0 01-1.824.715 2.835 2.835 0 00-2.096-.93c-1.855 0-3.217 1.774-2.799 3.616-2.386-.123-4.502-1.295-5.92-3.077-.752 1.323-.39 3.055.89 3.932a2.806 2.806 0 01-1.301-.368c-.032 1.364.922 2.64 2.303 2.925a2.81 2.81 0 01-1.297.05c.365 1.17 1.426 2.021 2.683 2.045A5.673 5.673 0 018 19.51a7.985 7.985 0 004.403 1.323c5.333 0 8.346-4.618 8.164-8.76A5.932 5.932 0 0022 10.548z"/></svg>