<svg xmlns="http://www.w3.org/2000/svg" viewBox="0 0 30 30"><defs><linearGradient id="a" x1="98.281%" x2="1.726%" y1="0%" y2="99.897%"><stop offset="0%" stop-color="#2B313D"/><stop offset="100%" stop-color="#191D24"/></linearGradient></defs><g fill="none" fill-rule="evenodd"><path fill="#191D24" fill-rule="nonzero" stroke="#191D24" stroke-width=".5" d="M21.452 0c1.904 0 3.47 1.503 3.545 3.37l.003.14v22.98c0 1.884-1.52 3.433-3.406 3.507l-.142.003H8.548c-1.904 0-3.47-1.503-3.545-3.37L5 26.49V3.51C5 1.627 6.52.078 8.406.004L8.548 0h12.904zm.428 1.974l-.014.004a.967.967 0 00-.59.647l-.02.09-.196 1.162a2.243 2.243 0 01-2.104 1.864l-.123.004h-7.742a2.246 2.246 0 01-2.204-1.749l-.023-.119-.195-1.162a.954.954 0 00-.578-.724l-.012-.005-.015.005A1.584 1.584 0 006.94 3.4l-.004.112v22.978c0 .854.66 1.54 1.507 1.593l.106.003h12.904c.862 0 1.555-.651 1.61-1.49l.003-.106V3.511c0-.722-.476-1.335-1.156-1.53l-.029-.007zm-5.927 9.537c.329 0 .595.266.595.595v.085a.596.596 0 01-.499.588l-.096.008h0-6.035a.596.596 0 01-.595-.596v-.085c0-.329.266-.595.595-.595h6.035zm3.01-2.98c.33 0 .596.268.596.597v.085a.596.596 0 01-.596.596H9.918a.596.596 0 01-.595-.596v-.085c0-.33.266-.596.595-.596h9.045zM15 1.916h-1.935l-.094.004a.961.961 0 00-.874.953c0 .491.373.896.855.951l.113.007H15l.093-.005a.961.961 0 00.875-.953.962.962 0 00-.968-.957zm2.592-.038c-.534 0-.967.43-.967.958s.433.957.967.957c.535 0 .968-.429.968-.957s-.433-.958-.968-.958zM11 15h8a2 2 0 012 2v6a2 2 0 01-2 2h-8a2 2 0 01-2-2v-6a2 2 0 012-2z"/><path fill="#FFF" fill-rule="nonzero" d="M25.833 11A4.167 4.167 0 0130 15.167v6.666A4.167 4.167 0 0125.833 26h-6.666A4.167 4.167 0 0115 21.833v-6.666A4.167 4.167 0 0119.167 11h6.666z"/><path fill="url(#a)" d="M4.333 8.666l2.19 2.35L8.275 9.49l3.443 3.683c-.275.104-.573.16-.884.16H4.167l-.147-.004a2.5 2.5 0 01-2.353-2.496l.031.195 2.635-2.362zm6.5-7l.147.005a2.5 2.5 0 012.353 2.496v6.666l-.004.147a2.485 2.485 0 01-.337 1.115l-4.6-4.919L6.643 8.7 4.44 6.334 1.667 8.818V4.167l.004-.147a2.5 2.5 0 012.496-2.353h6.666zm-.583 1.667a1.667 1.667 0 100 3.334 1.667 1.667 0 000-3.334z" transform="translate(15 11)"/></g></svg>