<svg viewBox="0 0 104 31" xmlns="http://www.w3.org/2000/svg"><g fill="none"><path d="M22 5.551a.26.26 0 00-.245-.225c-.103 0-2.13-.04-2.13-.04s-1.7-1.64-1.865-1.824c-.164-.164-.491-.123-.614-.082l-.86.266a6.108 6.108 0 00-.41-1.003C15.282 1.495 14.38.88 13.316.88c-.083 0-.144 0-.226.02-.041-.04-.062-.082-.103-.102-.47-.492-1.065-.738-1.782-.717-1.372.04-2.745 1.045-3.871 2.806-.779 1.25-1.373 2.807-1.557 4.015-1.578.492-2.684.84-2.725.84-.799.246-.82.267-.922 1.024C2.09 9.341 0 25.504 0 25.504l17.535 3.031 7.6-1.884c-.02 0-3.114-20.956-3.134-21.1zm-6.595-1.618c-.41.123-.86.266-1.352.43 0-.696-.103-1.68-.41-2.499 1.045.164 1.557 1.352 1.762 2.07zm-2.274.697c-.922.286-1.926.594-2.93.9.287-1.085.82-2.15 1.475-2.867.246-.266.594-.553.984-.717.41.799.491 1.926.47 2.684zm-1.885-3.626c.328 0 .594.061.82.225A3.63 3.63 0 0011 2.07c-.88.942-1.557 2.397-1.823 3.81-.84.266-1.66.512-2.397.738.492-2.233 2.356-5.552 4.466-5.613z" fill="#000"/><path d="M18.029 28.928l7.6-2.35S22.44 5.392 21.755 4.826c-.102 0-2.12-.04-1.784.1 0 0-1.553-1.912-1.942 24.002z" stroke="#FFF" fill="#000"/><path d="M13.315 9.239l-.88 3.298s-.984-.451-2.152-.369c-1.72.102-1.72 1.188-1.72 1.454.102 1.475 3.974 1.803 4.199 5.265.164 2.724-1.434 4.589-3.77 4.732-2.785.143-4.321-1.495-4.321-1.495l.594-2.52S6.82 20.772 8.05 20.69a1.087 1.087 0 001.065-1.168c-.123-1.926-3.278-1.803-3.483-4.978-.164-2.663 1.578-5.346 5.429-5.592 1.495-.103 2.253.287 2.253.287z" fill="#FFF"/><path d="M35.418 16.265c-.88-.471-1.331-.88-1.331-1.434 0-.696.635-1.147 1.618-1.147 1.147 0 2.171.471 2.171.471l.8-2.458s-.738-.574-2.91-.574c-3.031 0-5.141 1.741-5.141 4.18 0 1.392.983 2.437 2.294 3.195 1.065.594 1.434 1.024 1.434 1.66 0 .655-.533 1.187-1.516 1.187-1.454 0-2.847-.758-2.847-.758l-.86 2.458s1.27.86 3.42.86c3.114 0 5.367-1.536 5.367-4.301-.02-1.495-1.147-2.56-2.499-3.34zm12.414-5.183c-1.536 0-2.745.738-3.667 1.844l-.04-.02 1.33-6.965h-3.461l-3.38 17.74h3.462l1.147-6.064c.45-2.294 1.639-3.708 2.745-3.708.778 0 1.086.533 1.086 1.29 0 .472-.041 1.066-.144 1.537L45.6 23.68h3.461l1.352-7.17c.144-.757.246-1.659.246-2.273.02-1.967-1.004-3.155-2.827-3.155zm10.693 0c-4.179 0-6.944 3.77-6.944 7.969 0 2.683 1.659 4.855 4.773 4.855 4.097 0 6.862-3.667 6.862-7.969.02-2.478-1.434-4.855-4.69-4.855zm-1.7 10.181c-1.188 0-1.68-1.004-1.68-2.274 0-1.987 1.024-5.223 2.909-5.223 1.229 0 1.639 1.065 1.639 2.09 0 2.13-1.045 5.407-2.868 5.407zm15.282-10.18c-2.336 0-3.667 2.068-3.667 2.068h-.041l.205-1.864H65.53a77.004 77.004 0 01-.697 4.61l-2.417 12.7h3.462l.963-5.142h.082s.717.45 2.028.45c4.076 0 6.74-4.178 6.74-8.398 0-2.335-1.045-4.425-3.585-4.425zm-3.319 10.221c-.901 0-1.434-.512-1.434-.512l.574-3.237c.41-2.17 1.536-3.605 2.745-3.605 1.065 0 1.393.983 1.393 1.905 0 2.254-1.332 5.45-3.278 5.45zm11.86-15.2a1.98 1.98 0 00-1.986 2.008c0 1.024.655 1.741 1.638 1.741h.041c1.086 0 2.008-.737 2.028-2.007 0-1.004-.676-1.742-1.72-1.742zM75.795 23.66h3.462l2.355-12.29H78.13zM90.44 11.349h-2.417l.123-.574c.205-1.188.901-2.233 2.07-2.233.614 0 1.105.185 1.105.185l.676-2.725s-.594-.307-1.884-.307c-1.23 0-2.459.348-3.4 1.147-1.189 1.004-1.742 2.458-2.008 3.933l-.103.574h-1.618l-.512 2.622h1.618l-1.843 9.71h3.461l1.844-9.71h2.397l.491-2.622zm8.358.02s-2.171 5.47-3.134 8.46h-.04c-.062-.962-.861-8.46-.861-8.46h-3.647l2.09 11.287c.04.246.02.41-.082.574-.41.778-1.086 1.536-1.885 2.09-.655.47-1.393.778-1.966.982l.963 2.95c.696-.143 2.171-.737 3.4-1.884 1.577-1.475 3.052-3.77 4.548-6.883l4.24-9.116h-3.626z" fill="#000"/></g></svg>