<svg viewBox="0 0 49 30" xmlns="http://www.w3.org/2000/svg"><path d="M44.512 6.85c1.357-1.227 3.976-.755 3.976-.755l-6.33 9.447 6.267 9.415s-2.697.346-4.038-.88c-.81-.755-1.683-2.044-1.683-2.044l-2.292-3.395c-.063-.141-.265-.346-.468-.346s-.327.142-.468.346l-2.292 3.395s-.81 1.289-1.683 2.043c-1.266 1.145-3.755.92-4.08.885l-.036-.004 6.267-9.431-6.127-9.431s2.635-.472 3.976.754c.81.818 1.746 2.17 1.746 2.17l2.292 3.395c.062.141.265.345.467.345.203 0 .328-.141.468-.345l2.292-3.396s.873-1.414 1.746-2.169zM0 6.031s1.887-.283 3.165.88c.81.755 1.013 1.84 1.013 1.84l2.62 10.122 2.026-8.284c.203-.88.609-1.964 1.217-2.719.81-.959 2.354-1.022 2.494-1.022.187 0 1.746.063 2.495 1.022.608.755 1.013 1.84 1.216 2.72l2.151 8.283 2.62-10.123s.202-1.163 1.013-1.839c1.187-1.065 2.899-.911 3.137-.883l.028.003-4.958 18.94s-1.621.142-2.432-.267c-1.092-.55-1.56-.959-2.23-3.536-.608-2.31-2.214-9.038-2.354-9.51-.062-.267-.203-.817-.608-.817-.405 0-.546.613-.608.817-.125.472-1.746 7.2-2.354 9.51-.608 2.593-1.154 2.986-2.23 3.536-.81.409-2.432.267-2.432.267zm29.763 3.05v12.165c0 2.31-.203 2.845-1.278 3.395-.726.366-1.826.291-2.05.271l-.04-.003V12.068c0-.613.203-1.022 1.014-1.43.468-.268.873-.41 1.34-.676.671-.41 1.014-.88 1.014-.88zm-2.011-2.72c.733-.409 2.011-.33 2.027-.33 0 1.289-.125 2.028-.936 2.64-.28.205-.67.472-1.216.677a3.781 3.781 0 00-1.191.73l-.025.024c0-2.39.405-3.27 1.34-3.74z" fill="#A9AEB6"/></svg>