<svg viewBox="0 0 30 30" xmlns="http://www.w3.org/2000/svg"><path d="M19.635.734l2.41 4.57 5.09.88-.736 5.112L30 15l-3.6 3.704.735 5.113-5.09.88-2.41 4.569L15 26.986l-4.635 2.28-2.41-4.57-5.09-.88.736-5.112L0 15l3.6-3.704-.735-5.113 5.09-.88 2.41-4.569L15 3.014l4.635-2.28zm1.86 11.098c-1.443 0-2.491.772-2.491 1.997 0 .948.604 1.585 1.715 1.778l.802.143c.65.117.872.24.872.52 0 .294-.327.508-.86.508-.478 0-.898-.227-.948-.57h-1.682c.004 1.207.973 1.887 2.597 1.887 1.61 0 2.646-.789 2.646-2.026 0-.982-.549-1.54-1.724-1.745l-.83-.143c-.575-.1-.822-.252-.822-.541 0-.302.293-.495.759-.495.478 0 .851.222.864.6h1.623c-.008-1.175-.91-1.913-2.52-1.913zm-11.141.105H8.122L6.146 17.99H7.96l.314-1.204h1.846l.315 1.204h1.896l-1.976-6.053zm5.11 0h-2.589v6.053h2.588c1.833 0 2.916-1.133 2.916-3.07s-1.078-2.983-2.916-2.983zm-.252 1.414c.851 0 1.354.55 1.354 1.568 0 1.116-.465 1.657-1.354 1.657h-.558v-3.225h.558zm-6-.017l.584 2.198h-1.2l.583-2.198h.034z" fill="#191D24" fill-rule="evenodd"/></svg>