<svg viewBox="0 0 64 64" xmlns="http://www.w3.org/2000/svg"><g fill="none" fill-rule="evenodd"><rect fill="#1F4BD9" x="26" width="38" height="39" rx="11.122"/><path d="M37.3 18.415c1.823 0 3.3 1.474 3.3 3.292A3.296 3.296 0 0137.3 25a3.296 3.296 0 01-3.3-3.293 3.296 3.296 0 013.3-3.292zm8.067 0c1.822 0 3.3 1.474 3.3 3.292a3.296 3.296 0 01-3.3 3.293 3.296 3.296 0 01-3.3-3.293 3.296 3.296 0 013.3-3.292zM52.7 15c1.823 0 3.3 1.474 3.3 3.293a3.296 3.296 0 01-3.3 3.292 3.296 3.296 0 01-3.3-3.292A3.296 3.296 0 0152.7 15z" fill="#FFF"/><path d="M20.41 16.003c1.383-.039 2.662.314 3.755 1.03l.243.167.11.012c1.894.249 3.526 1.262 4.73 2.86l.177.244.14.207 1.724-.52v1.061c.272.129.533.294.775.5l.179.164.26.262 1.247 1.193.357.338 1.917.037a3.376 3.376 0 013.298 2.704l.064.4L43.93 56.63l.715 2.857-13.356 3.242.001.563-1.368-.232-3.108.755-.001-1.281L.647 58.107l3.337-25.498.16-1.316.02-.187c.307-2.218 1.141-3.189 3.235-3.866l.652-.2h.033l1.893-.575.075-.249a20.736 20.736 0 011.71-3.939l.27-.465.252-.407c2.153-3.295 4.986-5.31 8.127-5.402zm9.403 7.721V60L41 57.284l-.436-2.802c-1.148-7.5-4.153-27.432-4.178-27.6a.379.379 0 00-.362-.324l-3.136-.06-1.824-1.73-.808-.782a3.76 3.76 0 01-.112-.114.527.527 0 00-.174-.11l-.1-.033-.057-.005zm-9.078-4.722h-.24c-2.02.059-4.041 1.505-5.7 4.043-1.145 1.801-2.02 4.044-2.291 5.786l-3.822 1.16c-.113.033-.178.05-.189.05l-.293.09c-.8.25-.91.368-1.025 1.113l-.042.31-.397 3.181L4 55.632l24.29 4.11v-35.7l-.317.096a8.696 8.696 0 00-.603-1.447c-.793-1.499-1.958-2.366-3.337-2.515l-.22-.018-.212-.005h-.113a1.005 1.005 0 00-.22.03l-.097-.11a.2.2 0 00-.053-.038c-.64-.654-1.434-1.006-2.383-1.033zm-.18 1.328c.482 0 .875.088 1.206.325a5.328 5.328 0 00-1.568 1.21c-1.297 1.358-2.292 3.453-2.684 5.49l-1.27.388-.62.186.502-1.858c.529-1.96 1.489-3.841 2.722-5.23l-.033.02c.56-.322 1.146-.514 1.745-.531zm2.08 1.358c.604 1.15.724 2.774.694 3.866l-1.642.498v-.881c0-.113-.003-.227-.008-.343a8.542 8.542 0 00-.737 1.447l-1.925.578c.422-1.564 1.206-3.1 2.171-4.132.362-.384.875-.797 1.448-1.033zm3.69 2.967l-.018.006-.781.24c-.27.085-.55.175-.84.27 0-1.004-.15-2.42-.603-3.601.936.143 1.582.834 2.012 1.585l.125.232c.055.417.089.841.104 1.268z" fill="#FFF" fill-rule="nonzero"/><path d="M29.813 23.724l.056.005c.104.026.201.07.275.143.035.038.118.121.234.234l.066.065.018.017.007.007.089.087a76.083 76.083 0 00.291.28 229.798 229.798 0 001.58 1.502l.008.008a569.476 569.476 0 00.451.427s2.986.059 3.136.059c.151 0 .332.118.362.325.03.204 4.493 29.8 4.612 30.392l.002.01L29.813 60V23.724zm-6.695-3.69c.06.03.09.09.15.148.081-.02.148-.026.22-.028l.113-.001.212.005c1.475.077 2.722.955 3.557 2.533.271.532.482 1.033.603 1.447l.316-.096v35.7L4 55.632s3.005-22.757 3.133-24.078l.003-.037c.15-1.092.181-1.122 1.357-1.476.06 0 1.689-.502 4.01-1.21.272-1.742 1.147-3.985 2.292-5.786 1.659-2.538 3.68-3.984 5.7-4.043 1.055-.03 1.93.324 2.623 1.033zm.356 12.1s-1.11-.568-3.3-.418c-5.639.359-8.188 4.281-7.948 8.174.3 4.64 4.919 4.46 5.099 7.275a1.59 1.59 0 01-1.56 1.707c-1.8.12-4.08-1.587-4.08-1.587l-.87 3.683s2.25 2.395 6.33 2.186c3.42-.21 5.759-2.935 5.519-6.917-.33-5.06-6-5.539-6.15-7.695 0-.389 0-1.976 2.52-2.126 1.71-.12 3.15.54 3.15.54zM20.555 20.33c-3.106.088-5.85 4.87-6.574 8.087 1.086-.324 2.292-.678 3.528-1.062.392-2.037 1.387-4.132 2.684-5.49a5.328 5.328 0 011.568-1.21c-.331-.237-.724-.325-1.206-.325zm2.08 1.358c-.572.236-1.085.65-1.447 1.033-.965 1.033-1.749 2.568-2.17 4.132 1.477-.443 2.954-.885 4.311-1.299.03-1.092-.09-2.715-.693-3.866zm1.448-.118c.452 1.18.603 2.597.603 3.6a70.512 70.512 0 011.99-.62c-.301-1.032-1.055-2.744-2.593-2.98z" fill="#191D24" fill-rule="nonzero"/></g></svg>