<svg viewBox="0 0 180 30" xmlns="http://www.w3.org/2000/svg"><path d="M25.955 9.137a5.8 5.8 0 014.146 1.727c2.226 2.243 2.285 5.856.175 8.171l-.175.185L21.386 28l-1.575-1.586 8.716-8.78a3.654 3.654 0 001.063-2.592c0-.98-.377-1.9-1.063-2.591a3.623 3.623 0 00-4.995-.143l-.15.143-10.1 10.176-1.574-1.586 10.1-10.176a5.803 5.803 0 014.147-1.728zm-.796 5.098l1.566 1.589-10.053 10.19a5.758 5.758 0 01-4.126 1.731 5.75 5.75 0 01-3.93-1.538l-.197-.192-.783-.794 1.567-1.588.783.794a3.59 3.59 0 004.97.142l.15-.142 10.053-10.192zm32.6-5.862c.955 0 1.827.164 2.617.494.789.33 1.46.79 2.015 1.384a6.295 6.295 0 011.29 2.13c.306.828.46 1.732.46 2.715 0 1.02-.163 1.94-.486 2.76a6.174 6.174 0 01-1.388 2.13l1.697 2.032v.63h-2.157l-1.184-1.475a6.68 6.68 0 01-1.326.45 6.802 6.802 0 01-1.52.161c-.978 0-1.859-.165-2.642-.494a5.67 5.67 0 01-1.998-1.385 6.242 6.242 0 01-1.272-2.121c-.3-.821-.451-1.717-.451-2.688 0-.983.15-1.884.45-2.706.301-.82.728-1.528 1.282-2.12a5.862 5.862 0 012.006-1.394c.784-.335 1.653-.503 2.608-.503zm66.256-.255c1.309 0 2.346.316 3.112.948.766.632 1.214 1.478 1.344 2.537l-2.122.18c-.13-.54-.389-.962-.777-1.263-.39-.301-.932-.452-1.627-.452-.649 0-1.156.154-1.52.46a1.476 1.476 0 00-.549 1.184c0 .277.053.508.16.695.105.187.258.35.459.488.2.138.445.262.734.37.289.108.616.223.98.343l.903.29c.565.18 1.075.37 1.53.568.453.199.84.437 1.157.713.318.277.563.609.734.994.17.385.257.86.257 1.427a3.82 3.82 0 01-.354 1.652c-.236.5-.566.925-.99 1.274-.425.349-.929.62-1.512.812a6.155 6.155 0 01-1.936.29c-1.308 0-2.4-.314-3.271-.94-.873-.626-1.409-1.571-1.61-2.836l2.158-.198c.13.65.433 1.159.91 1.526.478.367 1.106.55 1.884.55.766 0 1.358-.18 1.777-.541.418-.361.627-.837.627-1.427 0-.289-.056-.533-.168-.731a1.52 1.52 0 00-.468-.506 2.89 2.89 0 00-.743-.352 37.985 37.985 0 00-.99-.307l-.955-.27a8.481 8.481 0 01-1.52-.57 4.694 4.694 0 01-1.15-.786c-.318-.3-.56-.647-.725-1.038-.165-.391-.247-.846-.247-1.364 0-.542.106-1.041.318-1.5.212-.456.513-.848.902-1.173.389-.325.86-.58 1.414-.768.554-.186 1.179-.28 1.874-.28zm-54.092.255v7.909c0 1.18.252 2.056.757 2.628.505.572 1.21.857 2.114.857.904 0 1.609-.285 2.114-.857.504-.572.757-1.448.757-2.628v-7.91h2.22v7.964c0 .94-.118 1.743-.353 2.411-.235.668-.57 1.216-1.004 1.644a3.91 3.91 0 01-1.602.939c-.635.198-1.345.297-2.132.297-.799 0-1.512-.099-2.14-.297a3.912 3.912 0 01-1.594-.94c-.434-.427-.769-.975-1.004-1.643s-.352-1.472-.352-2.41V8.372h2.22zm92.457 0c1.404 0 2.58.326 3.526.977a5.264 5.264 0 012.01 2.594l-2.268.444c-.31-.651-.742-1.164-1.295-1.537-.554-.373-1.223-.56-2.009-.56-.63 0-1.193.121-1.687.363s-.91.576-1.25 1c-.34.425-.598.927-.777 1.505a6.269 6.269 0 00-.267 1.859c0 .672.092 1.295.276 1.867a4.37 4.37 0 00.804 1.487c.35.42.776.746 1.277.982.5.236 1.07.355 1.713.355.834 0 1.521-.202 2.063-.605a4.216 4.216 0 001.259-1.475l2.231.374a6.347 6.347 0 01-.794 1.405 5.27 5.27 0 01-1.187 1.153 5.722 5.722 0 01-1.616.78 6.847 6.847 0 01-2.045.286c-.952 0-1.818-.166-2.598-.498a5.835 5.835 0 01-1.996-1.376 6.122 6.122 0 01-1.277-2.097c-.3-.81-.45-1.69-.45-2.638s.15-1.827.45-2.639c.3-.811.729-1.513 1.286-2.106a5.983 5.983 0 012.005-1.394c.78-.338 1.652-.506 2.616-.506zM43.84 8.118c1.309 0 2.346.316 3.112.948.766.632 1.214 1.478 1.344 2.537l-2.122.18c-.13-.54-.389-.962-.778-1.263-.389-.301-.931-.452-1.626-.452-.649 0-1.156.154-1.52.46a1.475 1.475 0 00-.55 1.184c0 .277.054.508.16.695.106.187.259.35.46.488.2.138.445.262.733.37.289.108.616.223.982.343l.902.29c.565.18 1.075.37 1.529.568.454.199.84.437 1.158.713.318.277.563.609.734.994.17.385.256.86.256 1.427 0 .602-.118 1.153-.353 1.652-.236.5-.566.925-.99 1.274-.425.349-.929.62-1.512.812a6.152 6.152 0 01-1.936.29c-1.309 0-2.4-.314-3.271-.94-.873-.626-1.41-1.571-1.61-2.836l2.157-.198c.13.65.434 1.159.911 1.526.477.367 1.105.55 1.884.55.765 0 1.358-.18 1.776-.541.419-.361.628-.837.628-1.427 0-.289-.056-.533-.168-.731a1.523 1.523 0 00-.468-.506 2.894 2.894 0 00-.743-.352 37.513 37.513 0 00-.99-.307l-.955-.27a8.472 8.472 0 01-1.52-.57 4.703 4.703 0 01-1.15-.786c-.318-.3-.56-.647-.725-1.038-.165-.391-.248-.846-.248-1.364 0-.542.107-1.041.319-1.5.212-.456.512-.848.902-1.173.389-.325.86-.58 1.414-.768.554-.186 1.178-.28 1.874-.28zm44.292.51l4.515 12.123v.622h-2.222l-1.29-3.64h-5.573l-1.29 3.64h-2.097v-.622l4.57-12.124h3.387zm11.45 0c.65 0 1.269.044 1.854.132a3.828 3.828 0 011.589.613c1.005.662 1.508 1.662 1.508 2.999 0 .58-.085 1.086-.257 1.518-.172.431-.4.798-.683 1.1a3.546 3.546 0 01-.985.736 5.16 5.16 0 01-1.163.426l3.674 4.599v.622h-2.148l-3.886-5.006h-1.438v5.006h-2.2V8.627h4.135zm16.611 0v1.952h-6.086v3.337h5.66v1.917h-5.66v3.586h6.21v1.953h-8.398V8.627h8.274zm20.632 0c.878 0 1.615.1 2.21.301.596.201 1.077.48 1.444.835.366.354.631.771.793 1.251.162.479.244.997.244 1.553 0 .663-.111 1.24-.334 1.73s-.544.897-.965 1.217c-.421.319-.932.559-1.534.719-.601.16-1.28.24-2.038.24h-2.291v4.899h-2.256V8.627h4.727zm13.156 0l4.516 12.123v.622h-2.222l-1.29-3.64h-5.573l-1.29 3.64h-2.097v-.622l4.57-12.124h3.386zm29.24-.154v1.97H173.1v3.37h5.69v1.936h-5.69v3.62h6.246v1.972h-8.448V8.474h8.322zM10.43 2l1.574 1.586-8.715 8.78a3.689 3.689 0 000 5.184 3.623 3.623 0 004.994.142l.15-.143 10.1-10.176 1.574 1.586-10.1 10.176a5.803 5.803 0 01-4.147 1.728 5.801 5.801 0 01-4.145-1.728c-2.226-2.242-2.285-5.855-.176-8.17l.176-.185L10.43 2zm47.312 8.314c-.636 0-1.205.12-1.706.359-.5.24-.925.571-1.272.996a4.473 4.473 0 00-.796 1.507 6.29 6.29 0 00-.274 1.893c0 .682.094 1.316.283 1.903a4.68 4.68 0 00.804 1.525c.347.43.772.768 1.273 1.014.5.245 1.07.367 1.706.367.636 0 1.204-.116 1.705-.35.5-.233.925-.559 1.273-.978a4.46 4.46 0 00.804-1.516 6.395 6.395 0 00.283-1.947c0-.694-.095-1.334-.283-1.92a4.477 4.477 0 00-.804-1.507 3.696 3.696 0 00-1.282-.987c-.506-.239-1.078-.359-1.714-.359zm28.938.23h-.555a402.153 402.153 0 00-.457 1.279c-.09.248-.188.532-.296.852-.107.319-.239.692-.394 1.118l-.735 2.024h4.247l-.699-2.024a220.18 220.18 0 01-.663-1.935 172.65 172.65 0 00-.448-1.313zm61.85 0h-.556l-.215.604-.242.675c-.09.248-.188.532-.295.852-.108.319-.24.692-.395 1.118l-.734 2.024h4.247l-.7-2.024c-.274-.793-.495-1.438-.663-1.935a159.17 159.17 0 00-.447-1.313zM19.27 2.255a5.75 5.75 0 013.929 1.539l.198.192.783.794-1.567 1.588-.783-.794A3.567 3.567 0 0019.27 4.5c-.894 0-1.737.325-2.398.92l-.162.153L6.657 15.765 5.09 14.176l10.054-10.19a5.757 5.757 0 014.126-1.731zm117.285 8.29h-2.201v4.012h2.165c.396 0 .76-.032 1.091-.097.33-.064.62-.173.866-.325.247-.153.439-.358.578-.616.138-.258.207-.575.207-.95 0-.387-.07-.712-.207-.976a1.612 1.612 0 00-.569-.625 2.463 2.463 0 00-.857-.326 5.625 5.625 0 00-1.073-.097zm-36.973 0h-1.935v3.906h1.935c.852 0 1.523-.156 2.014-.466.49-.311.737-.818.737-1.522 0-.716-.249-1.214-.746-1.495-.497-.282-1.165-.423-2.005-.423z" fill="#A9AEB6" fill-rule="nonzero"/></svg>