<svg viewBox="0 0 120 30" xmlns="http://www.w3.org/2000/svg"><g fill="#A9AEB6" fill-rule="evenodd"><path d="M36.705 4.033a3.774 3.774 0 013.773 3.778v12.594a3.774 3.774 0 01-3.773 3.778H24.889l1.622 3.977-7.132-3.977H3.773A3.774 3.774 0 010 20.405V7.811a3.76 3.76 0 013.757-3.778h32.948zm-19.3 2.216l-.161.005c-.48.033-.844.265-1.092.729-1.027 1.872-1.755 4.905-2.185 9.114-.629-1.591-1.158-3.464-1.572-5.667-.182-.978-.629-1.442-1.357-1.392-.496.033-.91.364-1.241.994l-3.624 6.91c-.596-2.403-1.159-5.336-1.672-8.8-.116-.861-.596-1.259-1.44-1.192-.463.033-.81.198-1.042.513-.232.299-.314.68-.265 1.11.977 6.215 1.887 10.407 2.73 12.578.332.795.712 1.176 1.16 1.143.694-.05 1.522-1.01 2.498-2.883a311.2 311.2 0 012.383-4.772c.894 3.131 2.118 5.485 3.657 7.059.43.447.877.646 1.308.613.38-.033.678-.232.877-.597.165-.315.231-.68.198-1.093-.1-1.508.05-3.613.464-6.314.43-2.784.96-4.789 1.605-5.982a1.44 1.44 0 00.165-.795 1.298 1.298 0 00-.513-.945c-.314-.248-.662-.364-1.042-.331zm16.652 1.794c-1.588 0-2.88.829-3.889 2.486-.86 1.408-1.29 2.966-1.29 4.673 0 1.276.264 2.37.794 3.281.596 1.044 1.473 1.674 2.648 1.922.314.066.612.1.893.1 1.605 0 2.896-.829 3.89-2.486.86-1.425 1.29-2.983 1.29-4.69 0-1.292-.265-2.37-.794-3.264-.596-1.044-1.473-1.674-2.648-1.922a4.338 4.338 0 00-.894-.1zm-10.376 0c-1.589 0-2.88.829-3.889 2.486-.86 1.408-1.29 2.966-1.29 4.673 0 1.276.264 2.37.794 3.281.596 1.044 1.473 1.674 2.648 1.922.314.066.612.1.893.1 1.605 0 2.896-.829 3.89-2.486.86-1.425 1.29-2.983 1.29-4.69 0-1.292-.265-2.37-.794-3.264-.596-1.044-1.49-1.674-2.648-1.922a4.338 4.338 0 00-.894-.1zm10.674 2.8c.397.084.728.432.976 1.078a4.21 4.21 0 01.298 1.508c0 .43-.05.845-.116 1.226-.231 1.094-.645 1.906-1.257 2.453-.48.43-.927.613-1.34.53-.398-.083-.729-.431-.977-1.077a4.21 4.21 0 01-.298-1.508c0-.414.033-.829.116-1.21.149-.68.43-1.342.877-1.972.546-.812 1.125-1.143 1.721-1.027zm-10.376 0c.397.084.728.432.976 1.078a4.21 4.21 0 01.298 1.508c0 .43-.033.845-.116 1.226-.231 1.094-.645 1.906-1.257 2.453-.48.43-.927.613-1.34.53-.398-.083-.729-.431-.977-1.077a4.21 4.21 0 01-.298-1.508c0-.414.033-.829.116-1.21.149-.68.43-1.342.877-1.972.546-.812 1.125-1.143 1.721-1.027z"/><path d="M44.665 9.916c-1.109 1.094-1.655 2.485-1.655 4.176 0 1.806.546 3.28 1.638 4.391 1.093 1.11 2.516 1.674 4.286 1.674.513 0 1.093-.083 1.722-.265v-2.685c-.58.166-1.076.249-1.506.249-.877 0-1.573-.299-2.102-.879-.53-.596-.794-1.392-.794-2.402 0-.945.264-1.724.777-2.32.53-.614 1.175-.912 1.97-.912.513 0 1.059.083 1.655.249V8.507a6.904 6.904 0 00-1.804-.215c-1.688-.017-3.078.53-4.187 1.624zm11.485-1.64c-1.523 0-2.714.513-3.575 1.524-.86 1.01-1.274 2.436-1.274 4.259 0 1.971.43 3.48 1.274 4.523.844 1.044 2.085 1.575 3.707 1.575 1.572 0 2.78-.53 3.624-1.575.844-1.044 1.274-2.518 1.274-4.407 0-1.89-.43-3.348-1.29-4.375-.877-1.011-2.119-1.525-3.74-1.525zm1.307 8.616c-.298.464-.745.696-1.307.696-.53 0-.927-.232-1.208-.696-.282-.464-.414-1.392-.414-2.8 0-2.171.546-3.248 1.655-3.248 1.158 0 1.754 1.093 1.754 3.297-.017 1.36-.182 2.287-.48 2.751zM69.356 8.59l-.596 2.535c-.15.647-.298 1.31-.43 1.989l-.331 1.757a150.95 150.95 0 00-1.291-6.28h-3.84l-1.44 11.284h2.88l.778-7.772 1.97 7.772h2.051l1.887-7.755.81 7.755h3.013L73.294 8.59h-3.938zm13.785 0l-.596 2.535c-.15.647-.298 1.31-.43 1.989l-.331 1.757a150.95 150.95 0 00-1.291-6.28h-3.84l-1.44 11.284h2.88l.778-7.772 1.97 7.772h2.051l1.87-7.755.811 7.755h3.012L87.063 8.59H83.14zm9.366 6.827h2.698v-2.336h-2.698V11.01h3.111V8.607h-6.156v11.285h6.173v-2.403h-3.128v-2.072zm11.7-1.79c.314-.513.48-1.043.48-1.59 0-1.06-.414-1.906-1.241-2.519-.828-.613-1.97-.928-3.393-.928h-3.541v11.285h3.045v-5.137h.05l2.465 5.137h3.21l-2.432-5.087c.58-.265 1.043-.647 1.357-1.16zm-4.667-.182v-2.684c.728.017 1.241.133 1.556.364.314.232.463.597.463 1.127 0 .78-.678 1.177-2.019 1.193zm6.934-3.53c-1.109 1.095-1.655 2.486-1.655 4.177 0 1.806.546 3.28 1.639 4.391 1.092 1.11 2.515 1.674 4.286 1.674.513 0 1.092-.083 1.72-.265v-2.685c-.578.166-1.075.249-1.505.249-.877 0-1.572-.299-2.102-.879-.53-.596-.794-1.392-.794-2.402 0-.945.265-1.724.778-2.32.53-.614 1.175-.912 1.969-.912.513 0 1.06.083 1.655.249V8.507a6.904 6.904 0 00-1.804-.215c-1.671-.017-3.078.53-4.187 1.624zm9.88 7.54v-2.054h2.697v-2.337h-2.697v-2.071h3.127V8.59h-6.156v11.285h6.173v-2.403h-3.144v-.016z" fill-rule="nonzero"/></g></svg>