<svg viewBox="0 0 108 35" xmlns="http://www.w3.org/2000/svg"><g fill="none" fill-rule="evenodd"><rect fill="#1F4BD9" width="35" height="35" rx="10.5"/><path d="M10.204 16.173a3.214 3.214 0 110 6.429 3.214 3.214 0 010-6.429zm7.908 0a3.214 3.214 0 110 6.429 3.214 3.214 0 010-6.429zm7.143-3.316a3.214 3.214 0 110 6.429 3.214 3.214 0 010-6.429z" fill="#FFF"/><path d="M101.56 12.116c1.266 0 2.404.319 3.414.957 1.034.662 1.776 1.55 2.224 2.666.177.436.309 1.001.397 1.696h-8.164c.024 3.094 1.395 4.641 4.112 4.641 1.026 0 1.904-.254 2.633-.763.441-.315.87-.788 1.287-1.418l.228.11c-.48 1.26-1.022 2.257-1.623 2.992-1.17 1.446-2.741 2.17-4.713 2.17-1.908 0-3.491-.65-4.75-1.952-1.162-1.203-1.743-2.678-1.743-4.423 0-2.052.761-3.732 2.284-5.04 1.259-1.091 2.73-1.636 4.413-1.636zm-13.42 0c1.567 0 2.85.435 3.85 1.307.925.815 1.388 1.743 1.388 2.785 0 .573-.17 1.069-.512 1.489-.381.476-.893.714-1.534.714-.666 0-1.198-.238-1.596-.714-.333-.396-.5-.88-.5-1.453 0-.299.081-.714.244-1.247.138-.452.207-.811.207-1.078 0-.411-.134-.754-.402-1.029a1.526 1.526 0 00-1.12-.448c-.772 0-1.402.436-1.889 1.308-.536.96-.804 2.07-.804 3.33 0 1.452.361 2.618 1.084 3.498.78.936 1.836 1.404 3.167 1.404 1.405 0 2.652-.56 3.74-1.682l.293.157c-1.397 3.14-3.488 4.71-6.274 4.71-1.803 0-3.285-.558-4.446-1.671-.593-.573-1.06-1.292-1.401-2.155a6.745 6.745 0 01-.488-2.494 6.55 6.55 0 011.133-3.717 6.495 6.495 0 012.79-2.36 7.275 7.275 0 013.07-.654zM55.028 7.913c2.21 0 4.183.7 5.92 2.103 2.112 1.702 3.168 3.92 3.168 6.651 0 2.554-1.056 4.685-3.168 6.396-1.73 1.402-3.699 2.103-5.908 2.103-2.209 0-4.178-.7-5.908-2.103-2.103-1.71-3.155-3.887-3.155-6.53 0-2.683 1.052-4.855 3.155-6.517 1.779-1.402 3.744-2.103 5.896-2.103zm21.07 4.203c1.183 0 2.03.35 2.54 1.05.381.52.572 1.39.572 2.612v6.457c.008.692.02 1.131.036 1.319.033.447.21.756.535.927.203.114.51.187.924.22v.244h-7.063v-.244c.543-.057.884-.256 1.021-.598.09-.236.138-.859.146-1.868v-4.724c0-1.253-.028-2.03-.085-2.331-.08-.44-.271-.757-.571-.953a1.32 1.32 0 00-.73-.22c-.575 0-1.199.294-1.871.88v7.348c.008 1.01.056 1.632.145 1.868.138.342.479.541 1.022.598v.244h-7.561v-.244c.834-.04 1.377-.224 1.629-.55.178-.235.287-.618.328-1.147a14 14 0 00.035-1.028l.001-4.33c0-.88-.052-1.522-.158-1.93-.138-.488-.397-.858-.778-1.11-.275-.18-.672-.281-1.191-.305L65 14.044a63.04 63.04 0 006.552-1.928v2.38c.534-.545 1.013-.98 1.434-1.306.956-.716 1.994-1.074 3.112-1.074zM55.04 8.24c-.86 0-1.583.316-2.168.948-.99 1.07-1.486 3.518-1.486 7.344 0 2.765.284 4.876.853 6.335a3.102 3.102 0 001.242 1.545c.439.283.962.425 1.572.425.869 0 1.591-.316 2.168-.948.99-1.07 1.486-3.49 1.486-7.26 0-2.877-.28-5.017-.84-6.42-.268-.664-.687-1.179-1.255-1.543-.447-.284-.97-.426-1.572-.426zm46.471 4.214c-.93 0-1.551.76-1.864 2.278-.144.695-.216 1.499-.216 2.411h3.787c0-1.413-.056-2.411-.168-2.993-.224-1.13-.737-1.696-1.539-1.696z" fill="#191D24"/></g></svg>